HIERARCHY
ROOT Hips
{
	OFFSET -0.001795 -0.223333 0.028219
	CHANNELS 6 Xposition Yposition Zposition Zrotation Yrotation Xrotation 
	JOINT LeftUpLeg
	{
		OFFSET 0.069520 -0.091406 -0.006815
		CHANNELS 3 Zrotation Yrotation Xrotation
		JOINT LeftLeg
		{
			OFFSET 0.034277 -0.375199 -0.004496
			CHANNELS 3 Zrotation Yrotation Xrotation
			JOINT LeftFoot
			{
				OFFSET -0.013596 -0.397961 -0.043693
				CHANNELS 3 Zrotation Yrotation Xrotation
				JOINT LeftToe
				{
					OFFSET 0.026358 -0.055791 0.119288
					CHANNELS 3 Zrotation Yrotation Xrotation
					End Site
					{
						OFFSET 0.000000 0.000000 0.000000
					}
				}
			}
		}
	}
	JOINT RightUpLeg
	{
		OFFSET -0.067670 -0.090522 -0.004320
		CHANNELS 3 Zrotation Yrotation Xrotation
		JOINT RightLeg
		{
			OFFSET -0.038290 -0.382569 -0.008850
			CHANNELS 3 Zrotation Yrotation Xrotation
			JOINT RightFoot
			{
				OFFSET 0.015774 -0.398415 -0.042312
				CHANNELS 3 Zrotation Yrotation Xrotation
				JOINT RightToe
				{
					OFFSET -0.025372 -0.048144 0.123348
					CHANNELS 3 Zrotation Yrotation Xrotation
					End Site
					{
						OFFSET 0.000000 0.000000 0.000000
					}
				}
			}
		}
	}
	JOINT Spine
	{
		OFFSET -0.002533 0.108963 -0.026696
		CHANNELS 3 Zrotation Yrotation Xrotation
		JOINT Spine1
		{
			OFFSET 0.005487 0.135180 0.001092
			CHANNELS 3 Zrotation Yrotation Xrotation
			JOINT Spine2
			{
				OFFSET 0.001457 0.052922 0.025425
				CHANNELS 3 Zrotation Yrotation Xrotation
				JOINT Neck
				{
					OFFSET -0.002778 0.213870 -0.042857
					CHANNELS 3 Zrotation Yrotation Xrotation
					JOINT Head
					{
						OFFSET 0.005152 0.064970 0.051349
						CHANNELS 3 Zrotation Yrotation Xrotation
						End Site
						{
							OFFSET 0.000000 0.000000 0.000000
						}
					}
				}
				JOINT LeftShoulder
				{
					OFFSET 0.078845 0.121749 -0.034090
					CHANNELS 3 Zrotation Yrotation Xrotation
					JOINT LeftArm
					{
						OFFSET 0.090977 0.030469 -0.008868
						CHANNELS 3 Zrotation Yrotation Xrotation
						JOINT LeftForeArm
						{
							OFFSET 0.259612 -0.012772 -0.027456
							CHANNELS 3 Zrotation Yrotation Xrotation
							JOINT LeftHand
							{
								OFFSET 0.249234 0.008986 -0.001171
								CHANNELS 3 Zrotation Yrotation Xrotation
								End Site
								{
									OFFSET 0.000000 0.000000 0.000000
								}
							}
						}
					}
				}
				JOINT RightShoulder
				{
					OFFSET -0.081759 0.118833 -0.038615
					CHANNELS 3 Zrotation Yrotation Xrotation
					JOINT RightArm
					{
						OFFSET -0.096012 0.032551 -0.009143
						CHANNELS 3 Zrotation Yrotation Xrotation
						JOINT RightForeArm
						{
							OFFSET -0.253742 -0.013329 -0.021401
							CHANNELS 3 Zrotation Yrotation Xrotation
							JOINT RightHand
							{
								OFFSET -0.255298 0.007772 -0.005559
								CHANNELS 3 Zrotation Yrotation Xrotation
								End Site
								{
									OFFSET 0.000000 0.000000 0.000000
								}
							}
						}
					}
				}
			}
		}
	}
}
MOTION
Frames: 10
Frame Time: 0.050000
-0.013943 0.945985 -0.061909 -3.938828 -18.942272 6.950987 7.325176 0.052235 -3.939752 -1.067162 0.213355 -2.778288 9.964987 18.561500 16.091561 0.000000 0.000000 0.000000 -1.110579 1.283340 -12.247998 2.068745 -0.074409 1.524002 3.724410 -1.582819 13.548524 0.000000 0.000000 0.000000 2.794313 -0.713929 16.696485 -2.842481 0.878433 -22.191526 -7.000711 -0.051244 27.764802 10.750734 -7.641806 -18.531391 0.000000 0.000000 0.000000 -3.839978 -38.951895 16.302382 -77.278394 -55.264474 35.691714 29.616206 -16.750555 -3.123329 0.000000 0.000000 0.000000 10.190002 19.787779 6.347219 80.648808 34.008783 13.544606 -13.057243 28.472918 -2.044762 0.000000 0.000000 0.000000 
-0.015826 0.945139 -0.063058 -3.956339 -18.536004 6.818088 7.704792 0.065628 -4.520210 -1.166831 0.203302 -1.736621 9.412127 17.814159 15.292588 0.000000 0.000000 0.000000 -0.936310 1.272884 -12.132853 2.124107 -0.075595 1.695571 3.606167 -1.663147 13.422503 0.000000 0.000000 0.000000 2.753623 -0.719713 17.081855 -3.251399 0.983620 -21.897479 -6.464005 0.009881 27.558791 10.427331 -7.419173 -18.243589 0.000000 0.000000 0.000000 -3.241055 -40.604176 16.667129 -77.033069 -57.544852 37.705208 30.155785 -12.710269 -2.341102 0.000000 0.000000 0.000000 10.118599 20.846901 6.866359 80.363884 36.233836 15.474532 -15.561788 24.631334 -2.192250 0.000000 0.000000 0.000000 
-0.017822 0.944551 -0.064070 -3.865401 -18.179007 6.567646 7.815841 0.065368 -4.829845 -1.088145 0.178171 -0.958252 8.951389 17.165497 14.808829 0.000000 0.000000 0.000000 -0.931129 1.254688 -12.003000 2.178145 -0.066362 2.209071 3.248794 -2.119328 13.170175 0.000000 0.000000 0.000000 2.648995 -0.711147 17.510755 -3.543586 1.069272 -22.018723 -6.136792 0.184995 27.712434 10.444585 -7.334738 -18.646988 0.000000 0.000000 0.000000 -3.585451 -42.064075 17.366601 -73.844169 -59.450447 37.136901 29.591526 -8.677002 -1.435261 0.000000 0.000000 0.000000 10.755077 22.046015 7.478708 80.395245 38.575576 17.682758 -16.672642 21.348549 -2.002052 0.000000 0.000000 0.000000 
-0.019833 0.943899 -0.064957 -3.777712 -17.314179 6.247149 7.878390 0.050686 -5.368734 -0.906743 0.135510 -0.001007 8.274897 16.218798 14.104191 0.000000 0.000000 0.000000 -0.933930 1.214453 -11.703166 2.131013 -0.060451 2.460137 3.050076 -2.116967 12.755253 0.000000 0.000000 0.000000 2.522802 -0.714128 18.181478 -3.616431 1.103981 -21.799961 -5.845395 0.000471 27.451564 9.778243 -6.801373 -18.881682 0.000000 0.000000 0.000000 -2.800725 -43.012852 17.316541 -72.089866 -61.260739 37.602574 27.302539 -4.180640 -0.446416 0.000000 0.000000 0.000000 10.943914 23.459915 8.186120 80.923088 40.997889 20.179869 -17.897532 19.093308 -1.899564 0.000000 0.000000 0.000000 
-0.021922 0.943773 -0.065773 -3.847105 -16.626051 6.136400 8.114183 0.052020 -5.711411 -0.829220 0.115778 0.436206 7.824747 15.566817 14.015540 0.000000 0.000000 0.000000 -0.740960 1.206914 -11.610053 2.210869 -0.059170 2.851703 2.779333 -2.393066 12.535789 0.000000 0.000000 0.000000 2.655383 -0.759838 18.432817 -3.709874 1.148230 -21.693511 -5.617314 -0.240323 27.519060 8.865199 -6.110337 -19.411269 0.000000 0.000000 0.000000 -2.233126 -43.045126 17.031753 -70.908050 -61.775721 37.267021 24.419416 -0.619785 0.230602 0.000000 0.000000 0.000000 10.727414 24.792623 8.793476 82.379089 43.039032 22.677404 -18.246784 17.127669 -1.679492 0.000000 0.000000 0.000000 
-0.024038 0.943719 -0.066476 -3.889215 -15.929309 6.253774 8.217091 0.036459 -6.692336 -0.563531 0.063448 1.181867 7.582642 15.265365 13.218246 0.000000 0.000000 0.000000 -0.526349 1.201280 -11.521235 2.520307 -0.082779 3.112061 2.691507 -2.205009 12.100360 0.000000 0.000000 0.000000 2.650612 -0.782767 18.566867 -3.868814 1.202490 -21.420320 -5.332441 -0.002967 27.250948 8.215299 -5.494315 -20.019964 0.000000 0.000000 0.000000 -2.384226 -43.209793 17.095160 -66.667296 -61.703076 34.129935 21.302758 2.016040 0.592700 0.000000 0.000000 0.000000 11.210485 26.434186 9.700941 83.516457 45.339392 25.648688 -18.396488 16.822465 -1.630555 0.000000 0.000000 0.000000 
-0.026339 0.943908 -0.067078 -3.728922 -15.381476 6.510140 8.114363 0.004012 -7.662297 -0.287463 0.010972 1.763203 6.960264 14.287525 13.377470 0.000000 0.000000 0.000000 -0.650218 1.235470 -11.856378 2.750318 -0.086578 3.829051 2.648510 -1.873764 11.535117 0.000000 0.000000 0.000000 2.496595 -0.772007 18.515505 -4.026022 1.256275 -21.252764 -5.231823 0.583681 26.910363 8.077261 -5.185056 -20.471734 0.000000 0.000000 0.000000 -1.003623 -42.137232 15.938815 -66.675575 -60.317173 32.901362 21.268047 2.727666 0.737063 0.000000 0.000000 0.000000 10.803565 27.914000 10.512538 85.652813 47.157910 28.799005 -19.867946 17.389453 -1.843471 0.000000 0.000000 0.000000 
-0.028905 0.944684 -0.067640 -3.714799 -13.802555 6.344595 8.603155 0.009964 -8.163019 -0.477553 0.030532 2.037387 6.630156 13.921397 13.535836 0.000000 0.000000 0.000000 -0.320438 1.198182 -11.490429 2.656649 -0.088684 3.910925 1.914427 -3.218897 11.800476 0.000000 0.000000 0.000000 2.549790 -0.832851 18.678108 -4.894387 1.524873 -21.369078 -4.807288 1.352633 27.414439 8.659688 -5.188562 -21.317501 0.000000 0.000000 0.000000 -0.037677 -41.323516 14.986573 -62.900260 -59.345570 29.370394 23.379937 1.883107 0.701771 0.000000 0.000000 0.000000 10.747825 28.040567 10.898641 87.297297 49.307694 32.315224 -20.721534 19.258309 -2.143209 0.000000 0.000000 0.000000 
-0.031879 0.945539 -0.067618 -3.574758 -12.510322 6.534171 8.817218 -0.007914 -9.167029 -0.394685 0.003533 2.641781 5.427903 12.132414 13.656429 0.000000 0.000000 0.000000 -0.828829 1.214332 -11.839909 3.276823 -0.144770 4.709544 1.618233 -3.385875 11.403279 0.000000 0.000000 0.000000 2.229821 -0.810727 18.221725 -5.242195 1.630400 -22.045412 -4.550159 3.713591 27.366096 9.735883 -5.363601 -21.625744 0.000000 0.000000 0.000000 1.130095 -39.859669 13.682513 -59.457330 -57.575941 25.299385 30.364014 -3.277451 -0.191662 0.000000 0.000000 0.000000 10.555377 27.532815 11.251005 88.033441 51.730619 36.133525 -21.816973 21.714742 -2.546744 0.000000 0.000000 0.000000 
-0.034896 0.946468 -0.066455 -3.295796 -9.892746 5.971240 9.030834 -0.054373 -9.594749 -0.743444 0.041853 2.915068 4.934611 11.660934 13.639179 0.000000 0.000000 0.000000 -0.928249 1.136990 -11.303031 3.200045 -0.159709 4.973914 -0.270568 -6.507769 11.068505 0.000000 0.000000 0.000000 2.157580 -0.866383 17.957120 -6.999409 2.137130 -22.370697 -3.571411 5.481766 27.733679 10.543128 -5.696535 -19.909178 0.000000 0.000000 0.000000 5.034553 -37.773592 11.318003 -56.984775 -58.588522 23.869281 41.200590 -9.426191 -2.269972 0.000000 0.000000 0.000000 8.122761 25.992810 10.636529 89.798708 54.562697 41.247543 -25.157855 27.821949 -3.989319 0.000000 0.000000 0.000000 
